<?xml version="1.0" encoding="UTF-8"?><svg id="Layer_1" xmlns="http://www.w3.org/2000/svg" xmlns:xlink="http://www.w3.org/1999/xlink" viewBox="0 0 342.07 70.22"><defs><style>.cls-1{fill:none;}.cls-2{fill:#001e46;}.cls-3{clip-path:url(#clippath);}</style><clipPath id="clippath"><rect class="cls-1" y="0" width="342.07" height="70.21"/></clipPath></defs><g id="Group_2"><g class="cls-3"><g id="Group_1"><path id="Path_1" class="cls-2" d="M18.29,68.61H0C.51,67.21,23.71,2.92,24.11,1.62h17.48c.4,1.1,24.61,65.39,25.21,66.99h-18.47c-.51-1.41-3.72-10.14-4.13-11.25h-21.99c-.31.91-3.62,10.35-3.92,11.25M32.85,26.54c-.4,1.21-4.63,13.45-4.92,14.35h10.14c-.3-.8-4.83-13.25-5.23-14.35"/><path id="Path_2" class="cls-2" d="M73.95,68.61V1.62h34.34c12.95.12,23.36,10.72,23.24,23.67-.12,12.78-10.45,23.12-23.24,23.24h-17.18v20.09h-17.17ZM91.12,32.05h17.18c3.8-.15,6.76-3.34,6.62-7.14-.14-3.6-3.02-6.48-6.62-6.62h-17.18v13.76Z"/><path id="Path_3" class="cls-2" d="M185.55,23.62c-2.51-2.41-6.23-6.84-13.97-6.84-10.13.11-18.25,8.4-18.14,18.53.1,9.98,8.17,18.04,18.14,18.14,5.63-.22,10.86-2.95,14.26-7.44,1.01,1.01,10.66,10.85,11.66,11.87-4.63,5.03-13.56,12.34-25.92,12.34-19.39,0-35.11-15.72-35.11-35.1C136.48,15.73,152.2,0,171.59,0c9.79.1,19.1,4.25,25.72,11.46-.8.8-10.46,10.85-11.75,12.16"/><path id="Path_4" class="cls-2" d="M201.54,35.17C201.51,15.78,217.2.03,236.59,0c19.39-.03,35.13,15.66,35.17,35.05.03,19.39-15.66,35.13-35.05,35.17,0,0,0,0,0,0-19.36.06-35.1-15.59-35.15-34.94,0-.04,0-.07,0-.11M218.62,35.17c-.21,9.96,7.69,18.2,17.65,18.41,9.96.21,18.2-7.69,18.41-17.65,0-.25,0-.51,0-.76.26-9.96-7.61-18.24-17.57-18.5-9.96-.26-18.24,7.61-18.5,17.57,0,.31,0,.62,0,.93"/><path id="Path_5" class="cls-2" d="M293.55,68.61h-18.28c.51-1.4,23.71-65.68,24.11-66.99h17.47c.4,1.1,24.61,65.39,25.21,66.99h-18.47c-.51-1.41-3.72-10.14-4.12-11.25h-22c-.3.91-3.61,10.35-3.92,11.25M308.13,26.54c-.4,1.21-4.63,13.45-4.92,14.35h10.14c-.3-.8-4.83-13.25-5.23-14.35"/></g></g></g></svg>