<?xml version="1.0" encoding="UTF-8"?><svg id="Layer_1" xmlns="http://www.w3.org/2000/svg" xmlns:xlink="http://www.w3.org/1999/xlink" viewBox="0 0 521.3 141.77"><defs><style>.cls-1{fill:none;}.cls-2{fill:#fff;}.cls-3{clip-path:url(#clippath);}</style><clipPath id="clippath"><rect class="cls-1" x="20.03" y="16.56" width="481.25" height="108.64"/></clipPath></defs><g id="Group_22"><g class="cls-3"><g id="Group_5"><path id="Path_7" class="cls-2" d="M44.3,91.79h-10.49v18.81h-13.78v-62.71h25.62c14.97,0,24,8.87,24,21.68v.18c0,14.51-11.29,22.04-25.35,22.04M55.67,69.84c0-6.18-4.3-9.51-11.2-9.51h-10.67v19.17h10.93c6.89,0,10.93-4.12,10.93-9.51v-.16Z"/><path id="Path_8" class="cls-2" d="M100.74,110.6v-5.2c-3.69,4.09-9.01,6.33-14.51,6.09-9.05,0-16.48-5.2-16.48-14.69v-.18c0-10.48,7.97-15.32,19.35-15.32,4-.03,7.97.64,11.73,1.98v-.81c0-5.64-3.49-8.78-10.3-8.78-4.55,0-9.05.89-13.26,2.6l-3.4-10.39c5.84-2.68,12.21-4,18.63-3.85,14.87,0,21.41,7.7,21.41,20.69v27.86h-13.17ZM101.01,91.25c-2.74-1.21-5.7-1.82-8.69-1.79-5.82,0-9.41,2.33-9.41,6.63v.18c0,3.67,3.05,5.82,7.44,5.82,6.36,0,10.66-3.49,10.66-8.42v-2.42Z"/><path id="Path_9" class="cls-2" d="M148.3,75.94c-9.05,0-14.6,5.47-14.6,16.93v17.74h-13.62v-48.01h13.62v9.68c2.78-6.63,7.26-10.93,15.32-10.57v14.23h-.72Z"/><path id="Path_10" class="cls-2" d="M185.39,110.6l-12.54-19.61-4.75,5.01v14.6h-13.61V45.21h13.62v34.85l15.94-17.47h16.31l-18.27,18.89,18.9,29.11h-15.59Z"/><path id="Path_11" class="cls-2" d="M271.56,111.86l-7.26-7.35c-5.09,4.45-11.6,6.93-18.36,6.99-12,0-21.05-6.99-21.05-18.19,0-8.06,4.3-13.71,12.18-17.29-2.79-3.63-4.33-8.06-4.39-12.63,0-8.69,6.89-16.57,18.99-16.57,10.66,0,17.65,6.89,17.65,15.86s-5.38,13.44-13.17,16.48l8.33,8.33c2.06-3.22,4.12-6.89,6.09-10.75l10.12,5.56c-2.45,4.6-5.2,9.03-8.24,13.26l9.23,9.23-10.12,7.08ZM244.59,84.45c-3.4,1.39-5.68,4.64-5.82,8.32,0,4.48,3.67,7.44,8.78,7.44,3.33-.15,6.51-1.41,9.04-3.58l-11.99-12.17ZM251.4,57.57c-3.28-.09-6.02,2.49-6.11,5.77,0,.23,0,.46.02.68.11,3.01,1.44,5.85,3.67,7.88,5.47-2.06,8.33-4.39,8.33-8.42.23-3.03-2.03-5.68-5.06-5.91-.28-.02-.57-.02-.85,0"/><path id="Path_12" class="cls-2" d="M325.93,60.44v13.35h29.92v12.54h-29.92v24.27h-13.78v-62.71h47.75v12.55h-33.96Z"/><rect id="Rectangle_3" class="cls-2" x="366.86" y="45.21" width="13.62" height="65.4"/><path id="Path_13" class="cls-2" d="M417.29,111.78c-3.67,9.77-7.6,13.44-15.77,13.44-4.26.06-8.46-1.09-12.09-3.32l4.57-9.86c1.75,1.11,3.76,1.75,5.82,1.88,2.12.2,4.1-1.1,4.75-3.13l-18.82-48.21h14.42l10.93,32.7,10.49-32.7h14.15l-18.46,49.19Z"/><path id="Path_14" class="cls-2" d="M500.2,21.28c-5.05-4.54-12.19-5.93-18.57-3.61l-41.85,15.23-18.77,6.83c-.82.3-1.75.15-2.44-.39l-8.92-7.08c-1.63-1.29-3.82-1.66-5.78-.96-.97.33-1.49,1.39-1.16,2.36,0,0,0,.01,0,.02l4.09,11.23-.07.02.42,1.14c2.52,6.93,10.18,10.5,17.11,7.98,0,0,0,0,0,0l35.43-12.9-8.32,7.87-7.76,29.71,9.12-3.33,21.71-39.63,24.68-8.98c1.71-.62,2.59-2.51,1.97-4.21-.18-.5-.48-.95-.88-1.31"/><path id="Path_15" class="cls-2" d="M452.18,25.4l-14.87-6.64c-3.98-1.78-8.5-1.94-12.6-.45l-2.27.82,15.24,11.53,14.5-5.27Z"/></g></g></g></svg>